{"title":"[AssTraffic] Alexa (mp4)","uid":14669207,"size":221455430,"categoryP":"porn","categoryS":"movie_clips","magnet":"?xt=urn:btih:b93bf047c326a2e90254b9091261e60b81ad8b13&amp;dn=%5BAssTraffic%5D+Alexa+%28mp4%29&amp;tr=udp%3A%2F%2Ftracker.leechers-paradise.org%3A6969&amp;tr=udp%3A%2F%2Fzer0day.ch%3A1337&amp;tr=udp%3A%2F%2Fopen.demonii.com%3A1337&amp;tr=udp%3A%2F%2Ftracker.coppersurfer.tk%3A6969&amp;tr=udp%3A%2F%2Fexodus.desync.com%3A6969","seeders":0,"leechers":1,"uploader":"supertongo","files":1,"time":1463849582,"description":"General\r\n\r\nFormat                         : MPEG-4\r\nFormat profile                 : Base Media\r\nCodec ID                       : isom\r\nFile size                      : 211 MiB\r\nDuration                       : 22mn 43s\r\nOverall bit rate               : 1 299 Kbps\r\nWriting application            : Lavf54.59.106\r\n\r\n\r\nVideo\r\nID                             : 1\r\nFormat                         : AVC\r\nFormat/Info                    : Advanced Video Codec\r\nFormat profile                 :   \r\nFormat settings, CABAC         : No\r\nFormat settings, ReFrames      : 2 frames\r\nCodec ID                       : avc1\r\nCodec ID/Info                  : Advanced Video Coding\r\nDuration                       : 22mn 43s\r\nBit rate                       : 1 200 Kbps\r\nWidth                          : 512 pixels\r\nHeight                         : 384 pixels\r\nDisplay aspect ratio           : 4:3\r\nFrame rate mode                : Constant\r\nFrame rate                     : 29.970 fps\r\nColor space                    : YUV\r\nChroma subsampling             : 4:2:0\r\nBit depth                      : 8 bits\r\nScan type                      : Progressive\r\nBits/(Pixel*Frame)             : 0.204\r\nStream size                    : 194 MiB (92%)\r\n\r\nAudio\r\nID                             : 2\r\nFormat                         : AAC\r\nFormat/Info                    : Advanced Audio Codec\r\nFormat profile                 : LC\r\nCodec ID                       : 40\r\nDuration                       : 22mn 43s\r\nBit rate mode                  : Constant\r\nBit rate                       : 96.0 Kbps\r\nChannel(s)                     : 2 channels\r\nChannel positions              : Front: L R\r\nSampling rate                  : 44.1 KHz\r\nCompression mode               : Lossy\r\nStream size                    : 15.6 MiB (7%)","torrent":{"xt":"urn:btih:b93bf047c326a2e90254b9091261e60b81ad8b13","amp;dn":"%5BAssTraffic%5D+Alexa+%28mp4%29","amp;tr":["udp%3A%2F%2Ftracker.leechers-paradise.org%3A6969","udp%3A%2F%2Fzer0day.ch%3A1337","udp%3A%2F%2Fopen.demonii.com%3A1337","udp%3A%2F%2Ftracker.coppersurfer.tk%3A6969","udp%3A%2F%2Fexodus.desync.com%3A6969"],"infoHash":"b93bf047c326a2e90254b9091261e60b81ad8b13","infoHashBuffer":{"type":"Buffer","data":[185,59,240,71,195,38,162,233,2,84,185,9,18,97,230,11,129,173,139,19]},"announce":[],"urlList":[]}}